<svg width="303" height="120" viewBox="0 0 303 120" fill="none" xmlns="http://www.w3.org/2000/svg">
<g clip-path="url(#clip0_3172_19536)">
<path d="M103.729 72.6103H89.4973V0H103.729V72.6103Z" fill="#231F20"/>
<path d="M147.668 19.4248C153.589 19.4248 158.264 21.7101 161.9 26.2807C165.535 30.8513 167.301 37.6033 167.301 46.4329C167.301 55.2625 166.47 57.34 164.704 61.3913C163.042 65.4425 160.653 68.4549 157.641 70.5325C154.628 72.61 151.2 73.6488 147.253 73.6488C143.306 73.6488 142.578 73.3372 140.813 72.7139C139.047 72.0906 137.488 71.2596 136.138 70.2208C134.788 69.1821 133.749 68.1433 132.814 67.0006H132.087C132.295 68.2472 132.502 69.4937 132.606 70.8441C132.71 72.1945 132.814 73.441 132.814 74.6876V95.7747H118.583V20.4636H130.113L132.087 27.2156H132.71C133.645 25.8652 134.788 24.5148 136.138 23.3721C137.488 22.2295 139.047 21.2946 141.02 20.5675C142.89 19.8403 145.071 19.5287 147.565 19.5287L147.668 19.4248ZM143.098 30.8513C140.605 30.8513 138.631 31.3707 137.177 32.4095C135.723 33.4483 134.684 35.0064 133.957 36.9801C133.229 38.9537 132.918 41.6546 132.814 44.7709V46.329C132.814 49.6531 133.126 52.5617 133.749 54.847C134.372 57.1323 135.411 59.0021 136.969 60.1447C138.527 61.3913 140.605 62.0145 143.202 62.0145C145.799 62.0145 147.149 61.3913 148.603 60.1447C149.954 58.8982 151.096 57.1323 151.72 54.847C152.447 52.4578 152.758 49.6531 152.758 46.2252C152.758 41.1352 151.927 37.2917 150.369 34.6948C148.811 32.0978 146.318 30.8513 142.994 30.8513H143.098Z" fill="#231F20"/>
<path d="M193.375 0V14.7506C193.375 17.3475 193.375 19.8406 193.167 22.1259C192.959 24.4112 192.855 26.0732 192.752 27.112H193.479C194.621 25.3461 195.972 23.8918 197.426 22.7491C198.88 21.6065 200.646 20.7755 202.516 20.2561C204.386 19.7367 206.36 19.4251 208.541 19.4251C212.281 19.4251 215.605 20.0483 218.409 21.3987C221.214 22.7491 223.395 24.8267 224.954 27.6314C226.512 30.4361 227.239 34.0718 227.239 38.5385V72.6103H213.008V42.1742C213.008 38.4346 212.281 35.6299 210.93 33.7601C209.58 31.8904 207.398 30.9555 204.594 30.9555C201.789 30.9555 199.504 31.5787 197.842 32.9291C196.18 34.2795 195.037 36.1493 194.31 38.7463C193.583 41.3432 193.271 44.4595 193.271 48.1991V72.7142H179.04V0H193.271H193.375Z" fill="#231F20"/>
<path d="M263.388 19.4248C270.348 19.4248 275.749 20.983 279.489 23.9954C283.228 27.0079 285.098 31.6823 285.098 37.915V72.7139H275.126L272.321 65.6502H271.906C270.451 67.52 268.893 69.0782 267.335 70.2208C265.777 71.3635 264.011 72.2984 261.934 72.8178C259.96 73.3372 257.467 73.6488 254.558 73.6488C251.65 73.6488 248.741 73.0255 246.248 71.8829C243.755 70.7402 241.885 68.8704 240.535 66.4812C239.184 63.9882 238.457 60.9757 238.457 57.1323C238.457 51.6268 240.431 47.4717 244.274 44.8748C248.118 42.2778 254.039 40.8235 261.83 40.5119L270.867 40.2003V37.915C270.867 35.2142 270.14 33.1366 268.686 31.8901C267.231 30.6436 265.258 30.0203 262.661 30.0203C260.064 30.0203 257.675 30.3319 255.285 31.0591C252.896 31.7862 250.403 32.7211 248.014 33.7599L243.34 24.0993C246.144 22.645 249.261 21.5024 252.688 20.6713C256.116 19.8403 259.648 19.4248 263.388 19.4248ZM270.971 48.5105L265.465 48.7182C260.895 48.8221 257.675 49.6531 255.909 51.2113C254.143 52.7694 253.208 54.7431 253.208 57.2362C253.208 59.7292 253.831 60.9757 255.078 61.9106C256.324 62.8455 257.986 63.261 260.064 63.261C263.076 63.261 265.673 62.3261 267.751 60.5602C269.828 58.7943 270.867 56.1974 270.867 52.8733V48.6143L270.971 48.5105Z" fill="#231F20"/>
<path d="M295.174 30.6435C294.136 30.6435 293.305 30.4357 292.474 30.1241C291.643 29.8124 290.916 29.293 290.292 28.6698C289.669 28.0465 289.15 27.3194 288.838 26.4884C288.526 25.6573 288.319 24.7224 288.319 23.7875C288.319 22.8527 288.526 21.9178 288.838 21.0867C289.15 20.2557 289.669 19.5286 290.292 18.9053C290.916 18.282 291.643 17.7627 292.474 17.451C293.305 17.1394 294.24 16.9316 295.174 16.9316C296.109 16.9316 297.044 17.1394 297.875 17.451C298.706 17.7627 299.433 18.282 300.057 18.9053C300.68 19.5286 301.199 20.2557 301.511 21.0867C301.823 21.9178 302.03 22.8527 302.03 23.7875C302.03 24.7224 301.823 25.6573 301.511 26.4884C301.199 27.3194 300.68 28.0465 300.057 28.6698C299.433 29.293 298.706 29.7086 297.875 30.1241C297.044 30.4357 296.109 30.6435 295.174 30.6435ZM295.174 29.3969C295.902 29.3969 296.629 29.293 297.356 28.9814C297.979 28.6698 298.602 28.3582 299.122 27.8388C299.641 27.3194 300.057 26.6961 300.265 26.0729C300.576 25.3457 300.68 24.6186 300.68 23.7875C300.68 22.9565 300.576 22.2294 300.265 21.6061C299.953 20.879 299.641 20.3596 299.122 19.8402C298.602 19.3208 298.083 18.9053 297.356 18.5937C296.629 18.282 296.006 18.1782 295.174 18.1782C294.343 18.1782 293.616 18.282 292.993 18.5937C292.266 18.9053 291.747 19.2169 291.227 19.7363C290.708 20.2557 290.292 20.879 290.084 21.5022C289.773 22.2294 289.669 22.9565 289.669 23.7875C289.669 24.6186 289.773 25.3457 290.084 26.0729C290.396 26.8 290.708 27.3194 291.227 27.8388C291.747 28.3582 292.266 28.7737 292.993 28.9814C293.72 29.293 294.447 29.3969 295.278 29.3969H295.174ZM292.578 27.8388V19.6325H295.071C296.109 19.6325 296.837 19.8402 297.252 20.2557C297.668 20.6712 297.979 21.2945 297.979 22.1255C297.979 22.9565 297.875 23.1643 297.564 23.4759C297.252 23.7875 296.94 24.0992 296.525 24.2031L298.706 27.8388H297.044L295.278 24.7224H294.136V27.8388H292.578ZM294.136 23.4759H295.071C295.59 23.4759 295.902 23.372 296.213 23.0604C296.525 22.7488 296.629 22.541 296.629 22.1255C296.629 21.71 296.525 21.3984 296.317 21.1906C296.109 20.9829 295.694 20.879 295.174 20.879H294.24V23.4759H294.136Z" fill="#231F20"/>
<path d="M76.8244 72.6087L71.8383 56.4038H46.9077L41.9216 72.6087H76.7205H76.8244ZM68.4104 44.2502L63.4242 28.357C63.1126 27.3182 62.6971 25.9678 62.1777 24.3057C61.6583 22.6437 61.1389 20.9817 60.6196 19.2158C60.1002 17.4498 59.6847 15.9956 59.373 14.749C59.0614 15.9956 58.6459 17.5537 58.1265 19.5274C57.6071 21.3972 57.0877 23.1631 56.5683 24.8251C56.049 26.4872 55.7373 27.7337 55.5296 28.4608L50.6473 44.3541H68.4104V44.2502Z" fill="#231F20"/>
<path d="M26.7552 71.6746L50.5431 4.1543H26.7552V24.6181H0.370361V47.4712H26.7552V71.6746Z" fill="#2862A9"/>
<path d="M278.276 108.426C275.917 108.426 273.906 108 272.244 107.147C270.581 106.281 269.316 104.945 268.449 103.14C267.582 101.335 267.149 99.0259 267.149 96.2121C267.149 93.2989 267.639 90.9256 268.62 89.0924C269.615 87.245 270.986 85.8879 272.734 85.021C274.496 84.1541 276.535 83.7207 278.852 83.7207C280.5 83.7207 281.921 83.8841 283.115 84.211C284.323 84.5236 285.374 84.9002 286.27 85.3407L284.351 90.3714C283.328 89.9593 282.376 89.6253 281.495 89.3695C280.614 89.0995 279.733 88.9645 278.852 88.9645C277.715 88.9645 276.77 89.2345 276.017 89.7746C275.263 90.3004 274.702 91.0962 274.333 92.162C273.963 93.2278 273.778 94.5636 273.778 96.1695C273.778 97.7469 273.977 99.0543 274.375 100.092C274.773 101.129 275.349 101.904 276.102 102.415C276.855 102.913 277.772 103.161 278.852 103.161C280.202 103.161 281.402 102.984 282.454 102.628C283.506 102.259 284.529 101.747 285.524 101.094V106.657C284.529 107.282 283.484 107.73 282.39 108C281.31 108.284 279.939 108.426 278.276 108.426Z" fill="#2862A9"/>
<path d="M253.443 83.7207C255.987 83.7207 258.033 84.417 259.582 85.8097C261.131 87.1882 261.906 89.4051 261.906 92.4604V108H255.404V94.0805C255.404 92.3752 255.092 91.0891 254.466 90.2222C253.855 89.3553 252.889 88.9219 251.567 88.9219C249.578 88.9219 248.221 89.5969 247.496 90.947C246.771 92.297 246.409 94.2439 246.409 96.7877V108H239.907V84.1683H244.874L245.748 87.2166H246.11C246.622 86.3924 247.254 85.7244 248.007 85.2129C248.775 84.7013 249.62 84.3247 250.544 84.0831C251.482 83.8415 252.448 83.7207 253.443 83.7207Z" fill="#2862A9"/>
<path d="M211.642 84.1689H218.761L223.259 97.577C223.401 98.0033 223.522 98.4367 223.621 98.8773C223.721 99.3178 223.806 99.7726 223.877 100.242C223.948 100.71 224.005 101.201 224.048 101.712H224.176C224.261 100.945 224.375 100.227 224.517 99.5594C224.673 98.8915 224.865 98.2307 225.092 97.577L229.505 84.1689H236.475L226.393 111.049C225.781 112.697 224.986 114.069 224.005 115.163C223.025 116.271 221.895 117.103 220.616 117.657C219.351 118.211 217.958 118.488 216.438 118.488C215.699 118.488 215.059 118.446 214.519 118.36C213.979 118.289 213.517 118.211 213.134 118.126V112.967C213.432 113.038 213.809 113.102 214.264 113.159C214.718 113.216 215.194 113.245 215.692 113.245C216.601 113.245 217.383 113.053 218.037 112.669C218.69 112.285 219.237 111.767 219.678 111.113C220.118 110.473 220.467 109.77 220.722 109.003L221.106 107.83L211.642 84.1689Z" fill="#2862A9"/>
<path d="M209.915 99.3455C209.915 101.193 209.467 102.799 208.572 104.163C207.676 105.527 206.369 106.579 204.649 107.318C202.944 108.057 200.869 108.426 198.425 108.426C197.345 108.426 196.286 108.355 195.249 108.213C194.226 108.071 193.238 107.865 192.286 107.595C191.348 107.311 190.453 106.963 189.6 106.55V100.411C191.078 101.065 192.613 101.655 194.204 102.181C195.796 102.706 197.373 102.969 198.937 102.969C200.017 102.969 200.884 102.827 201.537 102.543C202.205 102.259 202.688 101.868 202.987 101.371C203.285 100.873 203.434 100.305 203.434 99.6652C203.434 98.8836 203.172 98.2157 202.646 97.6615C202.12 97.1072 201.395 96.5885 200.471 96.1054C199.562 95.6222 198.532 95.1035 197.381 94.5493C196.656 94.2082 195.867 93.7961 195.014 93.3129C194.162 92.8155 193.352 92.2116 192.584 91.501C191.817 90.7905 191.185 89.9307 190.687 88.9217C190.204 87.8986 189.962 86.6764 189.962 85.2553C189.962 83.3937 190.389 81.8021 191.241 80.4804C192.094 79.1588 193.309 78.1499 194.887 77.4535C196.478 76.743 198.354 76.3877 200.514 76.3877C202.134 76.3877 203.676 76.5795 205.14 76.9632C206.618 77.3327 208.16 77.8727 209.765 78.5833L207.634 83.7205C206.198 83.1379 204.912 82.6902 203.776 82.3776C202.639 82.0508 201.48 81.8873 200.301 81.8873C199.477 81.8873 198.773 82.0223 198.191 82.2923C197.608 82.5481 197.167 82.9176 196.869 83.4008C196.571 83.8698 196.421 84.4169 196.421 85.0422C196.421 85.7811 196.635 86.4064 197.061 86.918C197.501 87.4154 198.155 87.8986 199.022 88.3675C199.903 88.8365 200.997 89.3836 202.305 90.0089C203.896 90.7621 205.253 91.5508 206.376 92.375C207.513 93.185 208.387 94.1443 208.998 95.2527C209.609 96.347 209.915 97.7112 209.915 99.3455Z" fill="#2862A9"/>
</g>
<defs>
<clipPath id="clip0_3172_19536">
<rect width="302.4" height="120" fill="white"/>
</clipPath>
</defs>
</svg>
