<svg width="126" height="50" viewBox="0 0 126 50" fill="none" xmlns="http://www.w3.org/2000/svg">
<g clip-path="url(#clip0_3148_23199)">
<path d="M43.2202 30.2543H37.2905V0H43.2202V30.2543Z" fill="white"/>
<path d="M61.5285 8.09377C63.9955 8.09377 65.9432 9.04598 67.4581 10.9504C68.973 12.8548 69.7088 15.6682 69.7088 19.3472C69.7088 23.0261 69.3625 23.8918 68.6267 25.5798C67.9342 27.2678 66.9387 28.523 65.6835 29.3886C64.4284 30.2543 63 30.6871 61.3553 30.6871C59.7106 30.6871 59.4076 30.5573 58.6718 30.2976C57.936 30.0379 57.2868 29.6916 56.7241 29.2588C56.1614 28.826 55.7286 28.3931 55.3391 27.917H55.0361C55.1227 28.4364 55.2092 28.9558 55.2525 29.5185C55.2958 30.0811 55.3391 30.6005 55.3391 31.1199V39.9062H49.4094V8.5266H54.2138L55.0361 11.3399H55.2958C55.6853 10.7773 56.1614 10.2146 56.7241 9.7385C57.2868 9.26239 57.936 8.87285 58.7584 8.56988C59.5375 8.2669 60.4464 8.13705 61.4852 8.13705L61.5285 8.09377ZM59.624 12.8548C58.5853 12.8548 57.7629 13.0712 57.1569 13.5041C56.551 13.9369 56.1182 14.5861 55.8152 15.4085C55.5122 16.2308 55.3824 17.3562 55.3391 18.6546V19.3039C55.3391 20.6889 55.4689 21.9008 55.7286 22.853C55.9883 23.8052 56.4211 24.5843 57.0704 25.0604C57.7196 25.5798 58.5853 25.8395 59.6673 25.8395C60.7494 25.8395 61.312 25.5798 61.918 25.0604C62.4807 24.541 62.9568 23.8052 63.2165 22.853C63.5194 21.8575 63.6493 20.6889 63.6493 19.2606C63.6493 17.1398 63.303 15.5383 62.6538 14.4563C62.0045 13.3742 60.9658 12.8548 59.5807 12.8548H59.624Z" fill="white"/>
<path d="M80.5728 0V6.14608C80.5728 7.22813 80.5728 8.26691 80.4862 9.21912C80.3997 10.1713 80.3564 10.8638 80.3131 11.2967H80.6161C81.0922 10.5609 81.6549 9.95491 82.2608 9.47881C82.8668 9.00271 83.6026 8.65645 84.3816 8.44004C85.1607 8.22363 85.9831 8.09378 86.892 8.09378C88.4502 8.09378 89.8352 8.35347 91.0038 8.91614C92.1724 9.47881 93.0814 10.3445 93.7306 11.5131C94.3798 12.6817 94.6828 14.1966 94.6828 16.0577V30.2543H88.7531V17.5726C88.7531 16.0144 88.4502 14.8458 87.8875 14.0667C87.3248 13.2876 86.4159 12.8981 85.2473 12.8981C84.0787 12.8981 83.1265 13.1578 82.4339 13.7205C81.7414 14.2831 81.2653 15.0622 80.9623 16.1443C80.6594 17.2263 80.5295 18.5248 80.5295 20.083V30.2976H74.5999V0H80.5295H80.5728Z" fill="white"/>
<path d="M109.745 8.09377C112.645 8.09377 114.896 8.74301 116.454 9.99819C118.012 11.2534 118.791 13.2011 118.791 15.798V30.2976H114.636L113.467 27.3544H113.294C112.688 28.1334 112.039 28.7827 111.39 29.2588C110.74 29.7349 110.005 30.1244 109.139 30.3408C108.317 30.5573 107.278 30.6871 106.066 30.6871C104.854 30.6871 103.642 30.4274 102.603 29.9513C101.565 29.4752 100.785 28.6961 100.223 27.7006C99.6602 26.6619 99.3572 25.4067 99.3572 23.8052C99.3572 21.5113 100.18 19.78 101.781 18.6979C103.382 17.6159 105.85 17.0099 109.096 16.8801L112.861 16.7502V15.798C112.861 14.6727 112.558 13.807 111.952 13.2876C111.346 12.7683 110.524 12.5086 109.442 12.5086C108.36 12.5086 107.364 12.6384 106.369 12.9414C105.373 13.2444 104.335 13.6339 103.339 14.0667L101.391 10.0415C102.56 9.43552 103.859 8.95942 105.287 8.61316C106.715 8.2669 108.187 8.09377 109.745 8.09377ZM112.905 20.2128L110.611 20.2994C108.706 20.3426 107.364 20.6889 106.629 21.3381C105.893 21.9874 105.503 22.8097 105.503 23.8485C105.503 24.8873 105.763 25.4067 106.282 25.7962C106.802 26.1857 107.494 26.3589 108.36 26.3589C109.615 26.3589 110.697 25.9693 111.563 25.2335C112.428 24.4977 112.861 23.4157 112.861 22.0307V20.2561L112.905 20.2128Z" fill="white"/>
<path d="M32.0101 30.2542L29.9326 23.5022H19.5448L17.4673 30.2542H31.9668H32.0101ZM28.5043 18.4382L26.4267 11.816C26.2969 11.3832 26.1237 10.8205 25.9073 10.128C25.6909 9.43549 25.4745 8.74298 25.2581 8.00718C25.0417 7.27138 24.8685 6.66543 24.7387 6.14604C24.6089 6.66543 24.4357 7.31466 24.2193 8.13702C24.0029 8.9161 23.7865 9.6519 23.5701 10.3444C23.3537 11.0369 23.2238 11.5563 23.1373 11.8593L21.103 18.4815H28.5043V18.4382Z" fill="white"/>
<path d="M122.989 12.7682C122.557 12.7682 122.21 12.6817 121.864 12.5518C121.518 12.422 121.215 12.2056 120.955 11.9459C120.695 11.6862 120.479 11.3832 120.349 11.0369C120.219 10.6907 120.133 10.3011 120.133 9.91161C120.133 9.52207 120.219 9.13252 120.349 8.78627C120.479 8.44001 120.695 8.13703 120.955 7.87734C121.215 7.61765 121.518 7.40124 121.864 7.27139C122.21 7.14154 122.6 7.05498 122.989 7.05498C123.379 7.05498 123.769 7.14154 124.115 7.27139C124.461 7.40124 124.764 7.61765 125.024 7.87734C125.283 8.13703 125.5 8.44001 125.63 8.78627C125.759 9.13252 125.846 9.52207 125.846 9.91161C125.846 10.3011 125.759 10.6907 125.63 11.0369C125.5 11.3832 125.283 11.6862 125.024 11.9459C124.764 12.2056 124.461 12.3787 124.115 12.5518C123.769 12.6817 123.379 12.7682 122.989 12.7682ZM122.989 12.2488C123.292 12.2488 123.595 12.2056 123.898 12.0757C124.158 11.9459 124.418 11.816 124.634 11.5996C124.851 11.3832 125.024 11.1235 125.11 10.8638C125.24 10.5608 125.283 10.2579 125.283 9.91161C125.283 9.56535 125.24 9.26237 125.11 9.00268C124.98 8.6997 124.851 8.48329 124.634 8.26688C124.418 8.05047 124.201 7.87734 123.898 7.74749C123.595 7.61765 123.336 7.57436 122.989 7.57436C122.643 7.57436 122.34 7.61765 122.081 7.74749C121.778 7.87734 121.561 8.00719 121.345 8.2236C121.128 8.44001 120.955 8.6997 120.869 8.9594C120.739 9.26237 120.695 9.56535 120.695 9.91161C120.695 10.2579 120.739 10.5608 120.869 10.8638C120.998 11.1668 121.128 11.3832 121.345 11.5996C121.561 11.816 121.778 11.9892 122.081 12.0757C122.383 12.2056 122.686 12.2488 123.033 12.2488H122.989ZM121.907 11.5996V8.18032H122.946C123.379 8.18032 123.682 8.26688 123.855 8.44001C124.028 8.61314 124.158 8.87283 124.158 9.21909C124.158 9.56535 124.115 9.65191 123.985 9.78176C123.855 9.91161 123.725 10.0415 123.552 10.0847L124.461 11.5996H123.769L123.033 10.3011H122.557V11.5996H121.907ZM122.557 9.78176H122.946C123.163 9.78176 123.292 9.73848 123.422 9.60863C123.552 9.47878 123.595 9.39222 123.595 9.21909C123.595 9.04596 123.552 8.91611 123.466 8.82955C123.379 8.74298 123.206 8.6997 122.989 8.6997H122.6V9.78176H122.557Z" fill="white"/>
<path d="M11.148 29.8648L21.0596 1.7313H11.148V10.2579H0.154297V19.78H11.148V29.8648Z" fill="white"/>
<path d="M115.948 45.1776C114.965 45.1776 114.128 45 113.435 44.6447C112.742 44.2835 112.215 43.7269 111.854 42.9749C111.493 42.2229 111.312 41.2607 111.312 40.0883C111.312 38.8745 111.516 37.8857 111.925 37.1218C112.339 36.3521 112.911 35.7866 113.639 35.4254C114.373 35.0642 115.223 34.8836 116.188 34.8836C116.875 34.8836 117.467 34.9517 117.965 35.0879C118.468 35.2181 118.906 35.3751 119.279 35.5586L118.48 37.6547C118.053 37.483 117.657 37.3439 117.289 37.2373C116.922 37.1248 116.555 37.0685 116.188 37.0685C115.714 37.0685 115.321 37.181 115.007 37.406C114.693 37.6251 114.459 37.9567 114.305 38.4008C114.151 38.8449 114.074 39.4015 114.074 40.0706C114.074 40.7278 114.157 41.2726 114.323 41.7048C114.489 42.1371 114.729 42.4598 115.042 42.673C115.356 42.8802 115.738 42.9838 116.188 42.9838C116.751 42.9838 117.251 42.9098 117.689 42.7618C118.127 42.6078 118.554 42.3947 118.968 42.1223V44.4404C118.554 44.701 118.118 44.8875 117.663 45C117.213 45.1184 116.641 45.1776 115.948 45.1776Z" fill="white"/>
<path d="M105.601 34.8836C106.661 34.8836 107.514 35.1737 108.159 35.754C108.805 36.3284 109.127 37.2521 109.127 38.5251V45H106.418V39.2002C106.418 38.4896 106.288 37.9537 106.027 37.5926C105.773 37.2314 105.37 37.0508 104.82 37.0508C103.991 37.0508 103.425 37.332 103.123 37.8945C102.821 38.457 102.67 39.2683 102.67 40.3282V45H99.9612V35.0701H102.031L102.395 36.3402H102.546C102.759 35.9968 103.022 35.7185 103.336 35.5053C103.656 35.2922 104.008 35.1352 104.393 35.0346C104.784 34.9339 105.187 34.8836 105.601 34.8836Z" fill="white"/>
<path d="M88.1838 35.0701H91.1504L93.0244 40.6568C93.0837 40.8344 93.134 41.015 93.1754 41.1986C93.2169 41.3821 93.2524 41.5716 93.282 41.767C93.3116 41.9624 93.3353 42.1667 93.3531 42.3799H93.4064C93.4419 42.0601 93.4893 41.7611 93.5485 41.4828C93.6136 41.2045 93.6935 40.9292 93.7883 40.6568L95.6268 35.0701H98.5312L94.3301 46.2701C94.0755 46.957 93.7439 47.5284 93.3353 47.9843C92.9267 48.4462 92.456 48.7925 91.9231 49.0235C91.3961 49.2544 90.8158 49.3699 90.1823 49.3699C89.8743 49.3699 89.6079 49.3521 89.3829 49.3166C89.1579 49.287 88.9654 49.2544 88.8056 49.2189V47.0695C88.9299 47.0991 89.0868 47.1257 89.2763 47.1494C89.4658 47.1731 89.6641 47.1849 89.8714 47.1849C90.2503 47.1849 90.576 47.105 90.8484 46.9451C91.1208 46.7852 91.3487 46.5691 91.5323 46.2967C91.7158 46.0303 91.8609 45.7372 91.9675 45.4174L92.1274 44.9289L88.1838 35.0701Z" fill="white"/>
<path d="M87.4644 41.394C87.4644 42.1637 87.2779 42.8328 86.9048 43.4013C86.5318 43.9697 85.987 44.4079 85.2706 44.7158C84.56 45.0237 83.6955 45.1776 82.6771 45.1776C82.2271 45.1776 81.7859 45.148 81.3537 45.0888C80.9274 45.0296 80.5158 44.9438 80.1191 44.8312C79.7283 44.7128 79.3553 44.5678 79 44.396V41.8381C79.6158 42.1104 80.2553 42.3562 80.9185 42.5753C81.5817 42.7943 82.2389 42.9039 82.8902 42.9039C83.3403 42.9039 83.7015 42.8447 83.9738 42.7263C84.2521 42.6078 84.4534 42.445 84.5778 42.2378C84.7021 42.0305 84.7643 41.7937 84.7643 41.5272C84.7643 41.2015 84.6548 40.9232 84.4357 40.6923C84.2166 40.4614 83.9146 40.2453 83.5297 40.0439C83.1508 39.8426 82.7215 39.6265 82.2419 39.3956C81.9399 39.2535 81.6113 39.0817 81.256 38.8804C80.9007 38.6732 80.5632 38.4215 80.2435 38.1255C79.9237 37.8294 79.6602 37.4712 79.453 37.0508C79.2517 36.6244 79.151 36.1152 79.151 35.5231C79.151 34.7474 79.3286 34.0842 79.6839 33.5336C80.0392 32.9829 80.5454 32.5625 81.2027 32.2723C81.8659 31.9763 82.6475 31.8282 83.5475 31.8282C84.2225 31.8282 84.865 31.9082 85.4749 32.068C86.0907 32.222 86.7331 32.447 87.4022 32.7431L86.514 34.8836C85.916 34.6408 85.3801 34.4543 84.9064 34.324C84.4327 34.1878 83.9501 34.1198 83.4587 34.1198C83.1153 34.1198 82.8222 34.176 82.5794 34.2885C82.3366 34.3951 82.1531 34.549 82.0287 34.7504C81.9044 34.9458 81.8422 35.1737 81.8422 35.4343C81.8422 35.7422 81.931 36.0027 82.1086 36.2159C82.2922 36.4231 82.5646 36.6244 82.9258 36.8198C83.2929 37.0152 83.7488 37.2432 84.2936 37.5037C84.9568 37.8176 85.5222 38.1462 85.99 38.4896C86.4637 38.8271 86.8279 39.2268 87.0825 39.6887C87.3371 40.1446 87.4644 40.713 87.4644 41.394Z" fill="white"/>
</g>
<defs>
<clipPath id="clip0_3148_23199">
<rect width="126" height="50" fill="white"/>
</clipPath>
</defs>
</svg>
